<?xml version="1.0" encoding="UTF-8"?>
<svg width="268px" height="143px" viewBox="0 0 268 143" version="1.1" xmlns="http://www.w3.org/2000/svg" xmlns:xlink="http://www.w3.org/1999/xlink">
    <title>1C6CE01A-588D-456F-B8C2-FE9893850D7F</title>
    <g id="Page-1" stroke="none" stroke-width="1" fill="none" fill-rule="evenodd">
        <g id="Verification" transform="translate(-26.000000, -124.000000)" fill-rule="nonzero">
            <g id="ils-Verify" transform="translate(26.000000, 124.000000)">
                <path d="M249.372907,139.654419 C249.020852,140.582043 248.582618,141.47324 248.064185,142.315851 C247.919826,142.548523 247.768748,142.777686 247.607677,143 L234.238292,143 C234.144404,142.928164 234.053791,142.852846 233.959735,142.781024 C233.489959,142.743444 233.023471,142.695506 232.567118,142.644229 C232.614146,142.603139 232.664436,142.562052 232.711477,142.52113 C232.469787,142.541675 232.228261,142.562052 231.986574,142.572407 C232.177793,142.596291 232.372455,142.620345 232.567125,142.644243 C232.422765,142.764003 232.275131,142.883763 232.124221,143 L231.540234,143 L231.932834,142.572407 C231.620854,142.582597 231.311984,142.589446 231,142.582597 L231.976584,142.315851 L233.030183,142.028563 C233.070492,142.062637 233.114077,142.096875 233.154387,142.131117 C236.787981,138.875993 238.970798,134.257609 239.203574,129.332302 C239.43635,124.406995 237.699173,119.596105 234.389376,116 C239.71578,119.643522 243.384937,125.313581 244.574212,131.738936 C244.876834,133.293822 244.922194,134.889354 244.708414,136.459495 C244.825896,136.326209 244.943218,136.192752 245.057264,136.055957 C248.498547,131.806525 249.905617,126.216139 248.896413,120.802756 C251.525356,126.768059 251.697004,133.559029 249.372907,139.654419 Z" id="Path" fill="#097BED"></path>
                <circle id="Oval" fill="#2F2E41" cx="183.5" cy="17.5" r="9.5"></circle>
                <polygon id="Path" fill="#FFB8B8" points="212.999447 140 209.611771 139.999641 208 123 213 123.000359"></polygon>
                <path d="M208.022723,139 L216,139 L216,143 L203,143 L203,143 C203,141.939135 203.529174,140.921719 204.471118,140.171573 C205.413061,139.421428 206.690612,139 208.022723,139 L208.022723,139 Z" id="Path" fill="#2F2E41"></path>
                <polygon id="Path" fill="#FFB8B8" points="172.921647 139 169 137.922649 171.212117 122 177 123.590037"></polygon>
                <path d="M165.913793,135.755505 L173.720058,135.800795 L173.748574,140.813914 L161.027192,140.740108 L161.027192,140.740108 C161.011526,137.971443 163.199293,135.739762 165.913793,135.755505 L165.913793,135.755505 Z" id="Path" fill="#2F2E41" transform="translate(167.387883, 138.284668) rotate(15.089560) translate(-167.387883, -138.284668) "></path>
                <path d="M180.155845,65.2857165 L168,134.742857 L174.233765,136 L193.870131,86.9714276 L208.519478,135.685714 L216,134.742854 C216,134.742854 212.571427,64.97143 201.662338,59 L180.155845,65.2857165 Z" id="Path" fill="#2F2E41"></path>
                <path d="M160.967225,90.6202452 C161.86913,90.1580261 162.525913,89.3081357 162.760849,88.2992607 C162.995785,87.2903857 162.78474,86.2261596 162.184502,85.392942 L169,75.100459 L162.714596,75 L157.206103,84.7893163 C155.884752,85.9459572 155.612256,87.937597 156.571819,89.4252222 C157.531382,90.9128474 159.4197,91.4262419 160.967225,90.6202417 L160.967225,90.6202452 Z" id="Path" fill="#FFB8B8"></path>
                <path d="M204.967225,77.6202445 C205.869133,77.1580289 206.525919,76.3081389 206.760855,75.2992629 C206.995792,74.2903869 206.784746,73.2261593 206.184505,72.3929427 L213,62.100459 L206.714599,62 L201.206108,71.7893137 C199.884754,72.9459528 199.612255,74.9375938 200.571817,76.4252206 C201.53138,77.9128474 203.419699,78.4262425 204.967225,77.620241 L204.967225,77.6202445 Z" id="Path" fill="#FFB8B8"></path>
                <ellipse id="Oval" fill="#FFB8B8" cx="185" cy="20.5" rx="8" ry="8.5"></ellipse>
                <path d="M202.13767,33.1964981 C201.827281,31.9445168 196.550706,32.2575129 196.550706,32.2575129 C196.550706,32.2575129 190.609086,30.880057 190.66531,31.0522975 C185.658341,30.6636521 179.550618,32.5591972 178.661057,32.8466704 C176.841091,33.3529962 173.363797,34.9018233 170.856086,36.0410195 C170.12965,36.371178 169.802557,37.2298169 170.12297,37.9654948 L177.772249,55.5756668 L178.858605,67 L204,59.175116 C197.792243,56.6711467 202.448055,34.448476 202.13767,33.1964981 Z" id="Path" fill="#FFB12A"></path>
                <polygon id="Path" fill="#097BED" points="201.576033 32 212.404282 54.8996264 213 68 206.148929 62.2487247 206.148929 57.1364421 199 47.2313731 199.595718 32.5335179"></polygon>
                <path d="M172.392158,35 L169.97715,36.0976034 C169.721798,36.2136608 169.539713,36.4521132 169.491509,36.7335847 L164.705884,64.6757683 L160,78.791811 L166.274509,82 L173.490196,64.3549483 L176,51.5221819 L172.392158,35 Z" id="Path" fill="#097BED"></path>
                <path d="M177,16.877801 C178.613469,16.2923778 180.315494,17.210148 181.891638,17.9088047 C183.444993,18.5973612 185.104637,19.093564 186.775418,18.9850945 C188.446199,18.8766251 190.135923,18.0969238 191.146043,16.6222998 C192.156162,15.1476757 192.333922,12.9376531 191.334044,11.4545491 C190.675826,10.4782058 189.625543,9.92114091 188.573803,9.5584005 C186.326621,8.78336307 183.811576,8.75659621 181.675534,9.85001057 C179.539491,10.9434249 177.864477,13.2533333 177.68849,15.8473625" id="Path" fill="#2F2E41"></path>
                <path d="M183.092024,9.88400511 C182.529364,6.07570179 184.615982,2.12164509 187.463883,0.703212037 C190.311784,-0.715221016 193.652863,0.121528875 196.21843,2.23375351 C198.783998,4.34597814 200.654257,7.5918312 202.046264,11.0422012 C203.438271,14.4925713 204.402112,18.1881749 205.536297,21.7866331 C206.543598,24.9825176 207.72606,28.1803338 209.639133,30.6245702 C211.552205,33.0688065 214.334267,34.6593445 217,33.987769 C214.809954,36.9315599 210.781006,36.4218397 208.281509,33.9038733 C205.782012,31.385907 204.482636,27.4502971 203.459821,23.6193476 C202.437005,19.7883982 201.54704,15.7800158 199.568404,12.6053697 C196.048377,6.95763301 189.14083,5.26087235 184.207817,8.83221642" id="Path" fill="#2F2E41"></path>
                <rect id="Rectangle" fill="#3F3D56" x="0" y="142" width="268" height="1"></rect>
                <path d="M140.468353,77 L23.5316467,77 C21.5820538,76.9978076 20.0021269,75.3692059 20,73.3595493 L20,44.6404473 C20.0021287,42.630792 21.5820551,41.0021924 23.5316467,41 L140.468353,41 C142.417945,41.0021924 143.997871,42.630792 144,44.6404473 L144,73.3595493 C143.997873,75.3692059 142.417946,76.9978076 140.468353,77 L140.468353,77 Z M23.5316467,41.808986 C22.0153722,41.8108785 20.7866466,43.0774589 20.7848108,44.6404473 L20.7848108,73.3595493 C20.7866466,74.9225377 22.0153722,76.1891181 23.5316467,76.1910106 L140.468353,76.1910106 C141.984628,76.1891181 143.213353,74.9225377 143.215189,73.3595493 L143.215189,44.6404473 C143.213353,43.0774589 141.984628,41.8108785 140.468353,41.808986 L23.5316467,41.808986 Z" id="Shape" fill="#097BED"></path>
                <path d="M134.607729,73 L29.392271,73 C29.2522616,73.0005166 29.1227137,72.9053311 29.0525916,72.7504182 C28.9824695,72.5955052 28.9824695,72.4044948 29.0525916,72.2495818 C29.1227137,72.0946689 29.2522616,71.9994834 29.392271,72 L134.607729,72 C134.747738,71.9994834 134.877286,72.0946689 134.947408,72.2495818 C135.017531,72.4044948 135.017531,72.5955052 134.947408,72.7504182 C134.877286,72.9053311 134.747738,73.0005166 134.607729,73 L134.607729,73 Z" id="Path" fill="#FFB12A"></path>
                <path d="M39.582093,58 L30.4154605,58 C30.1858135,58.0006633 30,58.1811696 30,58.4036127 C30,58.6260559 30.1858135,58.8065621 30.4154605,58.8072068 L34.5821193,58.8072068 L34.5821193,65.9438002 C34.5669133,67.0174376 35.4164766,67.9173323 36.521827,67.9984238 C36.5478694,67.9996068 36.5747237,68 36.6019874,68 C37.266959,67.9880414 37.8830633,67.6592023 38.2487128,67.1210779 C38.3863331,66.9427928 38.3488612,66.6902276 38.1649781,66.5566965 C37.981095,66.4231654 37.7203015,66.4591381 37.5822099,66.6370809 C37.3661368,66.9850459 36.9760095,67.196183 36.5568208,67.1920221 C35.8960405,67.1326472 35.3964994,66.5863318 35.4154657,65.9437968 L35.4154657,58.8071898 L39.5821245,58.8071898 C39.7312727,58.8076085 39.8692765,58.7307756 39.9439757,58.6057312 C40.0186748,58.4806868 40.0186748,58.3265047 39.9439757,58.2014603 C39.8692765,58.0764159 39.7312727,57.999583 39.5821245,58 L39.582093,58 Z" id="Path" fill="#097BED"></path>
                <circle id="Oval" fill="#E6E6E6" cx="69.5" cy="89.5" r="3.5"></circle>
                <circle id="Oval" fill="#097BED" cx="81.5" cy="89.5" r="3.5"></circle>
                <circle id="Oval" fill="#E6E6E6" cx="93.5" cy="89.5" r="3.5"></circle>
                <path d="M43.5,68 C43.7788995,67.9906662 44,67.7695656 44,67.5 C44,67.2304344 43.7788995,67.0093338 43.5,67 C43.2211005,67.0093338 43,67.2304344 43,67.5 C43,67.7695656 43.2211005,67.9906662 43.5,68 L43.5,68 Z" id="Path" fill="#FFB12A"></path>
                <path d="M46.5,68 C46.7788995,67.9906662 47,67.7695656 47,67.5 C47,67.2304344 46.7788995,67.0093338 46.5,67 C46.2211005,67.0093338 46,67.2304344 46,67.5 C46,67.7695656 46.2211005,67.9906662 46.5,68 L46.5,68 Z" id="Path" fill="#FFB12A"></path>
                <path d="M49.5,68 C49.7788995,67.9906662 50,67.7695656 50,67.5 C50,67.2304344 49.7788995,67.0093338 49.5,67 C49.2211005,67.0093338 49,67.2304344 49,67.5 C49,67.7695656 49.2211005,67.9906662 49.5,68 L49.5,68 Z" id="Path" fill="#FFB12A"></path>
                <path d="M52.5,68 C52.7788995,67.9906662 53,67.7695656 53,67.5 C53,67.2304344 52.7788995,67.0093338 52.5,67 C52.2211005,67.0093338 52,67.2304344 52,67.5 C52,67.7695656 52.2211005,67.9906662 52.5,68 L52.5,68 Z" id="Path-Copy" fill="#FFB12A"></path>
            </g>
        </g>
    </g>
</svg>