<?xml version="1.0" encoding="UTF-8"?>
<svg width="244px" height="203px" viewBox="0 0 244 203" version="1.1" xmlns="http://www.w3.org/2000/svg" xmlns:xlink="http://www.w3.org/1999/xlink">
    <title>B87FB884-DBCD-4C67-82D4-14AE52083D01</title>
    <defs>
        <linearGradient x1="50.5%" y1="100.7%" x2="50.5%" y2="0%" id="linearGradient-1">
            <stop stop-color="#808080" stop-opacity="0.251" offset="0%"></stop>
            <stop stop-color="#808080" stop-opacity="0.122" offset="54%"></stop>
            <stop stop-color="#808080" stop-opacity="0.102" offset="100%"></stop>
        </linearGradient>
    </defs>
    <g id="Page-1" stroke="none" stroke-width="1" fill="none" fill-rule="evenodd">
        <g id="Success-OTP" transform="translate(-38.000000, -167.000000)" fill-rule="nonzero">
            <g id="ils-OTPSucces" transform="translate(38.000000, 167.000000)">
                <g id="Group_2" transform="translate(74.000000, 0.000000)">
                    <rect id="Rectangle_76" fill="#3F3D56" x="97.9758494" y="45.8936987" width="2.97680094" height="24.5234827" rx="0.57708"></rect>
                    <rect id="Rectangle_80" fill="#3F3D56" x="0" y="0" width="99.5817623" height="202.311153" rx="9.82548"></rect>
                    <path d="M85.7215237,5.26960933 L74.2984495,5.26960933 L74.2984495,6.64324267 C74.2984497,8.37007271 73.6119767,10.0261249 72.3901455,11.2468481 C71.1683143,12.4675714 69.5112838,13.1528975 67.7838206,13.151964 L31.4554228,13.151964 C29.7279595,13.1528975 28.0709291,12.4675714 26.8490979,11.2468481 C25.6272667,10.0261249 24.9407936,8.37007271 24.9407939,6.64324267 L24.9407939,5.26960933 L14.2455386,5.26960933 C9.87762735,5.26960933 6.3367357,8.80920252 6.3367357,13.175512 L6.3367357,189.149445 C6.3367357,193.515755 9.87762735,197.055348 14.2455386,197.055348 L85.7215237,197.055348 C90.0894349,197.055348 93.6303382,193.515755 93.6303382,189.149445 L93.6303382,13.1890453 C93.6339212,11.0899257 92.8022618,9.07554997 91.3186838,7.58997732 C89.8351058,6.10440466 87.8214164,5.26960933 85.7215237,5.26960933 Z" id="Path_176" fill="#FFFFFF"></path>
                    <rect id="Rectangle_81" fill="#E6E8EC" x="40.1854588" y="6.04182133" width="13.9057273" height="2.82115867" rx="0.97524"></rect>
                    <ellipse id="Ellipse_5" fill="#E6E8EC" cx="57.7971597" cy="7.452536" rx="1.6026637" ry="1.602076"></ellipse>
                    <ellipse id="Ellipse_11" fill="#FFFFFF" cx="50.3990215" cy="103.639349" rx="18.838" ry="18.831092"></ellipse>
                    <path d="M75.1762727,101.009823 C75.1762727,114.909991 63.9030139,126.177492 49.9977463,126.177492 C36.0924788,126.177492 24.8208446,114.908367 24.8208446,101.008199 C24.8208446,87.1080303 36.0941034,75.8405293 49.9993709,75.8405293 C56.6769159,75.8405293 63.0808804,78.4926229 67.8024654,83.212781 C72.5240504,87.9329391 75.1762727,94.3347264 75.1762727,101.009823 Z M47.0889077,114.332036 L65.7655311,95.6622613 C66.0708098,95.3579306 66.2423841,94.9446675 66.2423841,94.5136873 C66.2423841,94.0827071 66.0708098,93.669444 65.7655311,93.3651133 L63.4675404,91.0847467 C63.1636537,90.7797763 62.7507766,90.6083449 62.3201697,90.6083449 C61.8895628,90.6083449 61.4766857,90.7797763 61.1727989,91.0847467 L45.9400477,106.312183 L38.8275675,99.1855293 C38.1919622,98.5536866 37.1651822,98.5536866 36.5295769,99.1855293 L34.2315862,101.496211 C33.5995116,102.131583 33.5995116,103.157986 34.2315862,103.793359 L44.7914585,114.345569 C45.0959008,114.650736 45.5093156,114.822247 45.9404539,114.822247 C46.3715921,114.822247 46.7850069,114.650736 47.0894492,114.345569 L47.0889077,114.332036 Z" id="Path_222" fill="#097BED"></path>
                </g>
                <g id="Group_1" transform="translate(8.000000, 26.000000)">
                    <rect id="Rectangle_77" fill="#3F3D56" x="68.9728858" y="13.2976518" width="1.51464145" height="7.24385805" rx="0.57708"></rect>
                    <rect id="Rectangle_78" fill="#3F3D56" x="68.9179619" y="26.5618035" width="1.70673831" height="12.6073875" rx="0.57708"></rect>
                    <rect id="Rectangle_79" fill="#3F3D56" x="68.9452872" y="43.5806689" width="1.62448916" height="12.7157225" rx="0.57708"></rect>
                    <path d="M48.8152843,77.2053217 C48.9044441,77.2904423 49.0395552,77.3075795 49.14756,77.247467 C49.035335,77.2491627 48.9234422,77.2349704 48.8152843,77.2053217 L48.8152843,77.2053217 Z" id="Path_190" fill="url(#linearGradient-1)"></path>
                    <path d="M61.3748125,82.0625672 L61.0469089,83.8283471 L60.7938766,85.1791579 L60.3337186,87.6500611 L55.8717701,90.7385549 C55.8717701,90.7385549 55.4695417,90.3981506 54.8060834,89.8616085 C52.9774742,88.373015 49.1341706,85.3417956 46.3120135,83.7146089 C45.5860921,83.2571814 44.8006872,82.8993674 43.9773398,82.6509804 L61.3748125,82.0625672 Z" id="Path_192" fill="#FEB9B9"></path>
                    <path d="M58.1015147,83.3763658 C58.1015147,83.3763658 63.3039788,84.2592558 63.6086559,82.0625672 C63.913333,79.8658787 60.9307764,78.6787862 58.403186,78.5310075 C55.8755957,78.3832288 40.7051349,79.4138974 40.7051349,79.4138974 C40.7051349,79.4138974 38.0291682,82.9424854 47.6935807,83.5330599 L58.1015147,83.3763658 Z" id="Path_194" fill="#3F3D56"></path>
                    <rect id="Rectangle_82" fill="#2F2E41" x="42.2626771" y="10.8899666" width="27.216" height="31.907232"></rect>
                    <rect id="Rectangle_83" fill="#000000" opacity="0.1" x="42.2626771" y="11.0347735" width="27.216" height="31.907232"></rect>
                    <path d="M10.3655798,65.5108122 C9.91744482,65.6223892 9.34470651,66.0511365 8.70775373,66.6708885 C5.96484,69.3557601 2.03628145,75.6564821 2.03628145,75.6564821 C-2.98638217,69.7412815 2.5715841,65.0677463 4.94068771,63.4616322 C5.51670506,63.0728689 5.90363133,62.8589004 5.90363133,62.8589004 L10.3655798,65.5108122 Z" id="Path_198" fill="#FEB9B9"></path>
                    <path d="M61.076147,20.9602612 C61.076147,20.9602612 62.4150867,30.2230411 67.0251383,32.428645 C71.6351899,34.6342489 61.076147,38.7563831 61.076147,38.7563831 L46.6513937,33.4590435 C46.6513937,33.4590435 54.8314959,30.8114543 53.1947104,23.0180864 L61.076147,20.9602612 Z" id="Path_199" fill="#FEB9B9"></path>
                    <path d="M45.6092067,76.6868805 L45.2829427,78.4467169 L45.0178872,79.8026608 L44.5577292,82.2735639 L40.0957807,85.3590859 C40.0957807,85.3590859 39.6935523,85.0216534 39.030094,84.4853815 C37.2014848,82.996788 33.3584545,79.9655685 30.5319253,78.3383818 C29.8063533,77.8803219 29.0208583,77.5224668 28.1972516,77.2747534 L45.6092067,76.6868805 Z" id="Path_200" fill="#FEB9B9"></path>
                    <path d="M41.749508,78.8571203 C41.749508,78.8571203 46.4185822,78.8897828 46.6994863,76.6868805 C46.9803904,74.4839783 44.1549542,73.3030995 41.749508,73.1553208 C39.3440617,73.0075421 24.7288511,74.1068319 24.7288511,74.1068319 C24.7288511,74.1068319 22.6554072,78.2673292 31.8484583,78.856823 L41.749508,78.8571203 Z" id="Path_202" fill="#2F2E41"></path>
                    <path d="M74.4860386,113.463515 C74.2819186,113.364096 74.0775253,113.261704 73.8764111,113.162285 L73.327719,112.478234 L66.1321475,103.456709 L66.1321475,103.613403 C66.0835084,105.120097 65.5654207,117.058563 61.5240087,118.161365 C57.2115296,119.336571 52.0090655,119.631858 49.6375027,111.692062 C47.2659398,103.752266 42.9326935,86.4019119 38.4827682,85.3715134 L45.1023224,80.0050122 C45.1023224,80.0050122 49.4850275,85.0732544 51.2707359,89.9245563 C51.2037889,89.6233255 48.1772386,75.6418933 50.6611084,73.1680184 L72.3778916,73.1680184 C72.3778916,73.1680184 75.7304328,82.608565 78.0282173,87.285072 C79.8172048,90.9160515 82.5021889,99.5007243 84.2310607,105.310291 C85.9424443,111.046915 79.9292386,116.112185 74.4860386,113.463515 Z" id="Path_204" fill="#2F2E41"></path>
                    <path d="M73.8673937,75.8039906 C70.5148525,77.7656381 55.7974453,76.9670387 51.009506,76.647707 L49.7049961,76.5542309 C49.5648173,76.5542309 49.7263099,76.4758839 49.7263099,76.4758839 L49.8604771,75.1410126 L53.4294347,66.17352 L72.5385643,55.2173637 C72.1513648,56.3714964 72.0234824,58.1372763 72.0540867,60.1591699 C72.1423475,66.6557595 73.8673937,75.8039906 73.8673937,75.8039906 Z" id="Path_205" fill="#000000" opacity="0.1"></path>
                    <path d="M73.8673937,75.3611948 C70.5148525,77.3228423 55.7974453,76.5242429 51.009506,76.2049112 L49.7049961,76.1144069 L49.4885798,76.0963061 L49.7263099,76.0360599 L50.9026641,75.7348291 L53.4291614,65.7369379 L72.5382911,54.7837534 C72.1513648,55.9378862 72.0232092,57.7036661 72.0538135,59.7255597 C72.1423475,66.2159355 73.8673937,75.3611948 73.8673937,75.3611948 Z" id="Path_206" fill="#FFB12A"></path>
                    <path d="M72.0417904,59.7193459 C68.1558593,60.6052077 59.604133,63.2044378 56.3185388,69.482196 C54.1273229,73.6616046 52.2834116,75.4544008 50.9972096,76.2046411 L49.6926998,76.1141368 C49.7012429,76.0884245 49.7083581,76.0622699 49.7140135,76.0357897 L50.8903677,75.7345589 L53.4168651,65.7366678 L72.5259947,54.7837534 C72.1434405,55.9316724 72.011186,57.6974523 72.0417904,59.7193459 Z" id="Path_207" fill="#000000" opacity="0.1"></path>
                    <path d="M5.90363133,62.8653843 L10.3655798,65.5110824 C9.91744482,65.6226594 9.34470651,66.0514067 8.70775373,66.6711587 C8.33585639,65.5983448 6.00254892,64.1008359 4.94068771,63.4621725 C5.51643181,63.0793528 5.90363133,62.8653843 5.90363133,62.8653843 Z" id="Path_208" fill="#000000" opacity="0.1"></path>
                    <path d="M48.8975335,76.2862301 C48.797275,76.3378528 48.6749353,76.3209298 48.5928564,76.2440848 C48.6917945,76.2727418 48.7944395,76.2869405 48.8975335,76.2862301 L48.8975335,76.2862301 Z" id="Path_209" fill="#000000" opacity="0.1"></path>
                    <path d="M58.9947788,31.8410423 C58.9947788,31.8410423 54.9779595,32.2808663 52.1527966,29.3401511 C52.1527966,29.3401511 40.2662906,32.7239322 36.2407272,40.3684408 C32.2151639,48.0129493 4.84914795,63.0128929 4.84914795,63.0128929 C4.84914795,63.0128929 9.60976193,65.6585909 9.16162699,66.9813049 L27.1583436,56.6881265 C27.1583436,56.6881265 33.5584757,52.1321118 35.33544,51.1017133 C37.1124043,50.0713148 46.9380361,43.7495202 49.0196776,60.9520959 C51.101319,78.1546716 49.0196776,76.0965762 49.0196776,76.0965762 C49.0196776,76.0965762 51.9943099,77.1272449 56.3067889,68.8918917 C60.619268,60.6565385 74.0018342,58.7462218 74.0018342,58.7462218 L74.7453557,50.0740164 C74.7453557,50.0740164 77.4000087,44.3246955 75.3549831,41.9383531 C74.7354251,41.2317767 74.3233143,40.3710038 74.1633267,39.4493491 C73.8250395,37.246717 74.1633267,33.576564 78.899348,30.5272437 C86.1864593,25.8204785 89.0122085,21.9998452 89.0122085,21.9998452 C89.0122085,21.9998452 89.1608183,19.2036668 84.6991431,17.8806827 C80.237468,16.5576986 62.0942877,9.35328422 62.0942877,9.35328422 L61.4846602,11.8541754 L75.799839,21.8431511 C75.799839,21.8431511 68.6621971,27.5681575 62.9995749,27.4295643 C62.9993017,27.4295643 64.0507793,31.6932636 58.9947788,31.8410423 Z" id="Path_210" fill="#097BED"></path>
                    <path d="M61.7497157,24.9918911 C61.3980173,23.8132595 61.1231974,22.6135247 60.9269508,21.4000852 L53.0455142,23.4587209 C53.3929783,24.9462725 53.3308914,26.4987069 52.8657137,27.9544894 C56.1601975,28.8236377 59.6607051,27.6563037 61.7497157,24.9918911 Z" id="Path_211" fill="#000000" opacity="0.1"></path>
                    <ellipse id="Ellipse_10" fill="#FEB9B9" cx="55.2033933" cy="19.4176352" rx="8.47576193" ry="8.37988995"></ellipse>
                    <path d="M64.4226766,86.9046837 C64.4226766,86.9046837 69.329481,96.4627508 67.8421648,99.4004942" id="Path_213" fill="#000000" opacity="0.1"></path>
                    <path d="M59.7107017,0.0634881081 C62.0634101,0.328787351 64.2975267,1.32595589 66.6138925,1.8714133 C67.1928092,2.04932792 67.8091103,2.07216847 68.3998742,1.93760303 C69.2988766,1.66338843 70.0303749,0.732409622 70.9629875,0.759425838 C71.5368188,0.777526703 72.0447961,1.16331827 72.5172506,1.53371059 C73.2747986,2.10698836 73.9878857,2.73552016 74.6505369,3.41403924 C76.2474275,5.12848832 77.2379696,7.43675384 78.6946814,9.30195341 C80.1513933,11.167153 82.2289359,13.3543858 84.298281,12.4990524 C82.8904814,17.922828 78.4995788,21.3157946 73.5107986,21.6534973 C71.5206969,21.7885784 69.4816829,21.3792827 67.5555224,21.9547281 C67.0757727,22.1491895 66.5691184,22.2710505 66.0526308,22.3162051 C64.9432236,22.3162051 64.0502328,21.309851 63.3583561,20.3305132 C61.7368728,18.0284614 60.4539499,15.4159933 58.6283465,13.3157526 C58.018719,12.6198149 57.3148193,11.9598088 56.4614501,11.8333729 C55.608081,11.706937 54.8249378,12.1105592 54.0661142,12.4993226 C52.8135224,13.1412279 51.5336053,13.8039357 50.5613711,14.9099796 C49.5891369,16.0160235 48.9765036,17.6488836 49.378732,19.1285617 C49.5951484,19.9301329 50.0891899,20.653357 50.097934,21.4908597 C50.1162419,22.8287027 48.9215798,23.8050688 48.6868554,25.1067101 C48.6338543,25.6534727 48.6145088,26.2029146 48.6289258,26.7519976 C48.5253629,28.5350679 47.3446366,29.9939436 46.1149981,31.1180883 C45.6335263,31.5519688 45.1039619,32.0220509 44.9629634,32.6939442 C44.8684178,33.1548409 44.9629634,33.6395118 44.902028,34.1071625 C44.7222275,35.264267 43.5548906,35.8518697 42.521721,36.0026202 C41.3145841,36.1793356 40.0816214,36.0347919 38.9497576,35.5838689 C40.3944463,34.9084635 41.2844313,32.9865298 40.9491499,31.265867 C40.4889918,28.8792545 38.0630516,27.1648054 38.2712704,24.7363177 C38.3853054,23.9911813 38.6113221,23.2670755 38.9418333,22.5879882 C39.4704813,21.2756436 39.8547026,19.9108464 40.0878564,18.5171848 C40.2706627,17.441399 40.3591966,16.2994236 40.0176304,15.2719969 C39.7129533,14.3377761 39.0760005,13.5937495 38.5363258,12.8040655 C37.8050097,11.7297869 37.2276122,10.5605972 36.8205701,9.32978011 C36.6730624,8.96468382 36.6168207,8.56979192 36.6566183,8.17861914 C36.7788385,7.71662848 37.0390964,7.30180024 37.4034188,6.98828465 C38.7292424,5.61045762 40.1463325,4.17994897 41.9232969,3.78524205 C42.7711161,3.6460615 43.633356,3.61365411 44.4894159,3.68879416 C45.9782668,3.73496374 47.4685342,3.67247676 48.9480853,3.50184195 C50.167067,3.36027697 52.2271214,3.37837784 53.2605643,2.59787935 C54.223508,1.86844151 54.7661884,0.952591784 55.95156,0.488723351 C57.1520254,0.0487827974 58.4424316,-0.0970319973 59.7123412,0.0637582703 L59.7107017,0.0634881081 Z" id="Path_221" fill="#2F2E41"></path>
                </g>
                <ellipse id="Ellipse_9" fill="#FFB12A" cx="223" cy="199.5" rx="12" ry="2.5"></ellipse>
                <path d="M227.845667,195.9803 C228.380186,195.496816 228.769667,194.845397 228.962723,194.111991 C229.108415,193.373203 228.822765,192.497153 228.180836,192.211385 C227.463325,191.908026 226.695251,192.459954 226.115873,193.014766 C225.536494,193.569578 224.867721,194.205421 224.106423,194.086038 C224.90368,193.288853 225.263986,192.086998 225.055373,190.920668 C225.021217,190.682991 224.929532,190.459981 224.790053,190.27531 C224.393376,189.804124 223.669348,190.004248 223.194743,190.378544 C221.678143,191.556222 221.255403,193.83891 221.246541,195.886293 C221.091988,195.147505 221.223085,194.376132 221.217351,193.627539 C221.211617,192.878947 221.027874,192.012702 220.447453,191.617355 C220.089388,191.404735 219.687058,191.300112 219.280878,191.313997 C218.598551,191.28516 217.84012,191.362442 217.373595,191.914082 C216.790307,192.598081 216.947727,193.746922 217.449438,194.495515 C217.951148,195.244107 218.71818,195.724809 219.423963,196.244441 C219.988111,196.617107 220.469148,197.12558 220.831359,197.73211 C220.874799,197.816953 220.909756,197.90678 220.935611,198 L225.196634,198 C226.1574,197.461956 227.048181,196.782986 227.844885,195.981453 L227.845667,195.9803 Z" id="Path_179" fill="#FFB12A"></path>
                <ellipse id="Ellipse_9-2" fill="#EFEFEF" cx="58" cy="202" rx="8" ry="1"></ellipse>
                <path d="M60.2247171,199.738516 C60.5806755,199.436191 60.8400457,199.028938 60.9686305,198.570454 C61.0853103,198.096563 60.8687315,197.602202 60.448049,197.382179 C59.970082,197.192601 59.4592335,197.537611 59.0728089,197.884533 C58.6863844,198.231454 58.241299,198.628912 57.7343963,198.554338 C58.2651489,198.055817 58.5048484,197.304507 58.365723,196.575517 C58.3429636,196.42692 58.2818778,196.287496 58.1889515,196.17205 C57.9258987,195.877576 57.4429338,196.002686 57.1264812,196.236517 C56.1163585,196.974068 55.8346289,198.398906 55.8288418,199.680058 C55.7259881,199.218133 55.8133217,198.735994 55.8093759,198.268059 C55.8054301,197.800124 55.6831105,197.259527 55.2964229,197.011491 C55.0579073,196.878594 54.7899153,196.813213 54.5193649,196.821914 C54.0648097,196.803885 53.5597483,196.852235 53.2488199,197.197245 C52.8602909,197.625024 52.965249,198.34318 53.299326,198.811114 C53.6334031,199.279049 54.1442516,199.579806 54.61459,199.903782 C54.9905473,200.136281 55.3112521,200.453725 55.5528994,200.832549 C55.5820061,200.885564 55.6054684,200.941711 55.6228714,201 L58.4609481,201 C59.1008827,200.66333 59.6941558,200.238549 60.2247171,199.73715 L60.2247171,199.738516 Z" id="Path_179-2" fill="#EFEFEF"></path>
                <ellipse id="Ellipse_12" fill="#EFEFEF" cx="12" cy="202" rx="8" ry="1"></ellipse>
                <path d="M15.2247171,199.738516 C15.5806755,199.436191 15.8400457,199.028938 15.9686305,198.570454 C16.0853103,198.096563 15.8687315,197.602202 15.448049,197.382179 C14.970082,197.192601 14.4592335,197.537611 14.0728089,197.884533 C13.6863844,198.231454 13.241299,198.628912 12.7343963,198.554338 C13.2651489,198.055817 13.5048484,197.304507 13.365723,196.575517 C13.3429636,196.42692 13.2818778,196.287496 13.1889515,196.17205 C12.9258987,195.877576 12.4429338,196.002686 12.1264812,196.236517 C11.1163585,196.974068 10.8346289,198.398906 10.8288418,199.680058 C10.7259881,199.218133 10.8133217,198.735994 10.8093759,198.268059 C10.8054301,197.800124 10.6831105,197.259527 10.2964229,197.011491 C10.0579073,196.878594 9.78991529,196.813213 9.51936493,196.821914 C9.06480969,196.803885 8.55974831,196.852235 8.2488199,197.197245 C7.86029091,197.625024 7.96524898,198.34318 8.29932604,198.811114 C8.6334031,199.279049 9.14425164,199.579806 9.61459004,199.903782 C9.9905473,200.136281 10.3112521,200.453725 10.5528994,200.832549 C10.5820061,200.885564 10.6054684,200.941711 10.6228714,201 L13.4609481,201 C14.1008827,200.66333 14.6941558,200.238549 15.2247171,199.73715 L15.2247171,199.738516 Z" id="Path_223" fill="#EFEFEF"></path>
                <rect id="Rectangle_22" fill="#2F2E41" x="0" y="201.753558" width="244" height="1"></rect>
                <path d="M232.524012,14.0316968 C232.524012,14.0316968 207.268084,12.5631543 210.243706,29.6178795 C210.243706,29.6178795 209.64381,32.6327185 212.487283,34 C212.487283,34 212.532315,32.736821 215.078789,33.1674384 C215.985432,33.3122401 216.906479,33.3548911 217.823352,33.2945313 C219.060162,33.216124 220.237034,32.7524926 221.176656,31.9734888 C221.176656,31.9734888 228.276493,29.1464477 231.036067,17.9656341 C231.036067,17.9656341 233.078607,15.5260712 232.997656,14.8986148 L228.735663,16.6531162 C228.735663,16.6531162 230.193318,19.6160331 229.035611,22.0778114 C229.035611,22.0778114 228.897565,16.7590269 228.078672,16.8747537 C227.913822,16.8980024 225.865117,17.9007961 225.865117,17.9007961 C225.865117,17.9007961 228.369775,23.0604562 226.480023,26.8127954 C226.480023,26.8127954 227.196788,20.4535027 225.082143,18.2738085 L222.082665,19.961922 C222.082665,19.961922 225.010305,25.2923309 223.024592,29.6426781 C223.024592,29.6426781 223.533887,22.9710779 221.449799,20.3723906 L218.732309,22.4159508 C218.732309,22.4159508 221.482769,27.6680891 219.806117,31.2762863 C219.806117,31.2762863 219.58712,23.5119975 218.144208,22.9253555 C218.144208,22.9253555 215.765533,24.9487668 215.402594,25.775387 C215.402594,25.775387 217.28618,29.5910144 216.11641,31.6028013 C216.11641,31.6028013 215.399645,26.4286753 214.811544,26.3997436 C214.811544,26.3997436 212.441983,29.8278927 212.195913,32.1809189 C212.195913,32.1809189 212.29804,28.6861235 214.238453,26.0760702 C214.238453,26.0760702 211.946894,26.4547655 210.609058,27.8843019 C210.609058,27.8843019 210.977894,25.4620463 214.823338,25.2481583 C214.823338,25.2481583 216.781978,22.6466295 217.303871,22.4906049 C217.303871,22.4906049 213.482552,22.1806223 211.163921,23.1728249 C211.163921,23.1728249 213.203512,20.886445 218.005894,21.9269532 L220.690414,19.8139053 C220.690414,19.8139053 215.657241,19.1518341 213.521688,19.8833931 C213.521688,19.8833931 215.978365,17.8599817 221.413344,19.3342072 L224.335088,17.6517768 C224.335088,17.6517768 220.042805,16.7613518 217.487217,17.0736592 C217.487217,17.0736592 220.186748,15.671763 225.192847,17.1922276 L227.292482,16.2881117 C227.292482,16.2881117 224.149061,15.6926868 223.228042,15.5973672 C222.307022,15.5020475 222.25931,15.2592278 222.25931,15.2592278 C224.250815,14.9392391 226.295405,15.1584269 228.165253,15.8923673 C228.165253,15.8923673 232.599066,14.3006067 232.524012,14.0316968 Z" id="Path_177" fill="#097BED"></path>
                <path d="M196.791852,5.01417376 C196.791852,5.01417376 185.822567,4.35493023 187.104149,12.0284426 C187.104149,12.0284426 186.846182,13.3842259 188.079781,14 C188.079781,14 188.099903,13.4243515 189.208388,13.622922 C189.602067,13.6890005 190.002211,13.7083408 190.400455,13.6805383 C190.938918,13.6450068 191.450914,13.4346984 191.858228,13.0817404 L191.858228,13.0817404 C191.858228,13.0817404 194.94687,11.8095521 196.147708,6.77841541 C196.147708,6.77841541 197.033825,5.6819054 196.999,5.39973991 L195.145763,6.18836288 C195.145763,6.18836288 195.778041,7.52099679 195.281454,8.6290815 C195.281454,8.6290815 195.220831,6.23697662 194.865868,6.29202075 C194.793637,6.29202075 193.901587,6.7550088 193.901587,6.7550088 C193.901587,6.7550088 194.992788,9.07766547 194.170131,10.7644852 C194.170131,10.7644852 194.481755,7.90347635 193.56107,6.92194171 L192.256271,7.69358844 C192.256271,7.69358844 193.52934,10.0910949 192.666181,12.0485054 C192.666181,12.0485054 192.888549,9.04654239 191.982052,7.87801201 L190.801336,8.799101 C190.801336,8.799101 191.996498,11.1621405 191.269031,12.7859425 C191.269031,12.7859425 191.171003,9.29166883 190.5444,9.026994 C190.5444,9.026994 189.510984,9.93650829 189.352076,10.310757 C189.352076,10.310757 190.171896,12.0377024 189.663958,12.9328126 C189.663958,12.9328126 189.352076,10.6042399 189.086627,10.5921508 C189.086627,10.5921508 188.056048,12.1354443 187.94925,13.1825689 C188.000861,12.2057309 188.307375,11.2592569 188.838463,10.4367926 C188.243761,10.5491163 187.694935,10.8322514 187.259445,11.2513943 C187.259445,11.2513943 187.421191,10.1605431 189.092561,10.0656305 C189.092561,10.0656305 189.958557,8.89427076 190.172154,8.8222504 C190.172154,8.8222504 188.509555,8.68412564 187.501934,9.1309091 C187.501934,9.1309091 188.388052,8.10333286 190.475265,8.5696647 L191.629927,7.61976757 C191.629927,7.61976757 189.439785,7.32911397 188.511102,7.64960458 C188.511102,7.64960458 189.579087,6.74009029 191.943357,7.40216319 L193.213588,6.64517774 C193.213588,6.64517774 191.345905,6.24520752 190.234582,6.38796217 C190.234582,6.38796217 191.409365,5.75752678 193.586093,6.43940528 L194.495427,6.0335191 C194.495427,6.0335191 193.128201,5.76575768 192.725772,5.72254546 C192.323343,5.67933325 192.304253,5.57001663 192.304253,5.57001663 C193.170811,5.42627979 194.060391,5.52594238 194.873349,5.85784086 C194.873349,5.85784086 196.825646,5.13403622 196.791852,5.01417376 Z" id="Path_178" fill="#FFB12A"></path>
                <path d="M19.791852,128.014174 C19.791852,128.014174 8.82256736,127.35493 10.1041488,135.028443 C10.1041488,135.028443 9.84618152,136.384226 11.0797811,137 C11.0797811,137 11.0999025,136.424352 12.2083879,136.622922 C12.602067,136.689001 13.0022114,136.708341 13.4004547,136.680538 C13.9389184,136.645007 14.4509141,136.434698 14.8582278,136.08174 L14.8582278,136.08174 C14.8582278,136.08174 17.94687,134.809552 19.1477077,129.778415 C19.1477077,129.778415 20.0338253,128.681905 19.9989997,128.39974 L18.1457628,129.188363 C18.1457628,129.188363 18.7780406,130.520997 18.2814536,131.629082 C18.2814536,131.629082 18.2208313,129.236977 17.8658683,129.292021 C17.7936375,129.292021 16.9015866,129.755009 16.9015866,129.755009 C16.9015866,129.755009 17.9927882,132.077665 17.1701305,133.764485 C17.1701305,133.764485 17.481755,130.903476 16.5610698,129.921942 L15.2562713,130.693588 C15.2562713,130.693588 16.5293398,133.091095 15.6661813,135.048505 C15.6661813,135.048505 15.8885491,132.046542 14.9820521,130.878012 L13.8013358,131.799101 C13.8013358,131.799101 14.9964983,134.162141 14.2690305,135.785942 C14.2690305,135.785942 14.171003,132.291669 13.5444004,132.026994 C13.5444004,132.026994 12.5109835,132.936508 12.3520757,133.310757 C12.3520757,133.310757 13.1718957,135.037702 12.6639581,135.932813 C12.6639581,135.932813 12.3520757,133.60424 12.0866273,133.592151 C12.0866273,133.592151 11.0560481,135.135444 10.9492496,136.182569 C11.0008613,135.205731 11.3073747,134.259257 11.8384628,133.436793 C11.2437614,133.549116 10.6949345,133.832251 10.2594451,134.251394 C10.2594451,134.251394 10.4211906,133.160543 12.0925606,133.065631 C12.0925606,133.065631 12.9585567,131.894271 13.1721537,131.82225 C13.1721537,131.82225 11.5095545,131.684126 10.5019343,132.130909 C10.5019343,132.130909 11.388052,131.103333 13.4752652,131.569665 L14.6299267,130.619768 C14.6299267,130.619768 12.4397845,130.329114 11.5111023,130.649605 C11.5111023,130.649605 12.5790869,129.74009 14.943357,130.402163 L16.2135879,129.645178 C16.2135879,129.645178 14.3459048,129.245208 13.2345817,129.387962 C13.2345817,129.387962 14.4093647,128.757527 16.5860926,129.439405 L17.4954273,129.033519 C17.4954273,129.033519 16.1282007,128.765758 15.7257718,128.722545 C15.3233428,128.679333 15.3042532,128.570017 15.3042532,128.570017 C16.1708106,128.42628 17.0603909,128.525942 17.8733494,128.857841 C17.8733494,128.857841 19.8256457,128.134036 19.791852,128.014174 Z" id="Path_224" fill="#097BED"></path>
            </g>
        </g>
    </g>
</svg>