<?xml version="1.0" encoding="UTF-8"?>
<svg width="127px" height="155px" viewBox="0 0 127 155" version="1.1" xmlns="http://www.w3.org/2000/svg" xmlns:xlink="http://www.w3.org/1999/xlink">
    <title>81BDFDB8-9646-4BCF-B20F-8712E39CD2C3</title>
    <g id="Page-1" stroke="none" stroke-width="1" fill="none" fill-rule="evenodd">
        <g id="Failed-OTP" transform="translate(-97.000000, -202.000000)" fill-rule="nonzero">
            <g id="ils-FailedOTP" transform="translate(97.000000, 202.000000)">
                <path d="M59.5329739,119 L59.5328787,118.603333 C60.3215624,118.603135 61.1221581,118.586871 61.9126784,118.555301 L61.9285609,118.951571 C61.1328106,118.983538 60.3268877,118.999816 59.5329739,119 Z M57.1380632,118.954098 C56.3451172,118.923108 55.5405509,118.875655 54.7468315,118.813094 L54.7780154,118.41759 C55.566602,118.479956 56.3658411,118.527022 57.1535569,118.557811 L57.1380632,118.954098 Z M64.3197965,118.807864 L64.2882259,118.41236 C65.0753606,118.349412 65.8719857,118.269421 66.6558281,118.174708 L66.7034737,118.568664 C65.914306,118.663965 65.1123537,118.744348 64.3197965,118.807872 L64.3197965,118.807864 Z M52.3628628,118.576608 C51.5719518,118.481895 50.7737758,118.370142 49.9903221,118.244437 L50.0532691,117.852805 C50.8313975,117.977733 51.6243435,118.088715 52.4099273,118.182652 L52.3628628,118.576608 Z M69.0754353,118.23379 L69.0120996,117.842153 C69.7900337,117.716451 70.5776524,117.572544 71.3530696,117.414885 L71.4320935,117.80342 C70.6515513,117.962438 69.8585994,118.10712 69.0754353,118.23379 L69.0754353,118.23379 Z M47.633178,117.81678 C46.8525386,117.658734 46.065979,117.482673 45.2951135,117.294024 L45.3894368,116.908591 C46.1551694,117.096272 46.936495,117.270976 47.7118151,117.42786 L47.633178,117.81678 Z M73.769674,117.277955 L73.6747696,116.892903 C74.4428267,116.703865 75.216215,116.496817 75.9735165,116.277371 L76.0839167,116.658544 C75.3213792,116.879351 74.5427668,117.087755 73.769674,117.277955 L73.769674,117.277955 Z M42.9800953,116.676943 C42.2152354,116.456142 41.4454349,116.217135 40.6920981,115.966513 L40.8174129,115.589988 C41.565724,115.839067 42.3303797,116.076526 43.0901127,116.295778 L42.9800953,116.676943 Z M78.3709461,115.945208 L78.2452445,115.569064 C78.9940296,115.318825 79.7480447,115.049795 80.486564,114.769145 L80.627567,115.139858 C79.884012,115.42246 79.1247668,115.693417 78.3709461,115.945208 L78.3709461,115.945208 Z M38.4286009,115.161358 C37.6844549,114.879353 36.9349042,114.577978 36.2006451,114.265178 L36.3560788,113.900274 C37.0853975,114.210945 37.8300195,114.510382 38.5692172,114.790258 L38.4286009,115.161358 Z M82.8433194,114.24659 L82.6875981,113.88168 C83.4127538,113.571978 84.140815,113.243683 84.8514428,112.905701 L85.0218863,113.264018 C84.3064153,113.604138 83.5733184,113.93476 82.8433194,114.24659 L82.8433194,114.24659 Z M34.0113305,113.279708 C33.2908238,112.93766 32.5684765,112.57663 31.8644314,112.206498 L32.0490142,111.855541 C32.7483131,112.222961 33.4657199,112.581665 34.1813853,112.921385 L34.0113305,113.279708 Z M87.1599715,112.193915 L86.9751964,111.842952 C87.673817,111.475337 88.3735999,111.088936 89.0549835,110.694786 L89.2537034,111.037996 C88.5676729,111.434863 87.8632411,111.823783 87.1599715,112.193915 L87.1599715,112.193915 Z M29.7633434,111.04768 C29.0720828,110.648108 28.381695,110.230136 27.7112535,109.805385 L27.9235335,109.470308 C28.5894212,109.892164 29.2752593,110.307416 29.9618709,110.70447 L29.7633434,111.04768 Z M91.299988,109.798417 L91.0877081,109.463337 C91.752628,109.042076 92.4194856,108.600663 93.0696852,108.15112 L93.2951344,108.477286 C92.6406687,108.929935 91.9693585,109.374442 91.2999841,109.798417 L91.299988,109.798417 Z M25.711363,108.481935 C25.0554494,108.028711 24.401174,107.556893 23.7666705,107.079461 L24.0050967,106.762591 C24.6354432,107.236734 25.2853532,107.705451 25.9368122,108.155767 L25.711363,108.481935 Z M95.2364354,107.076948 L94.9978168,106.760073 C95.6267114,106.287093 96.2563796,105.793395 96.8693917,105.29252 L97.1204081,105.599704 C96.5033242,106.103874 95.8693939,106.60087 95.2364314,107.076948 L95.2364354,107.076948 Z M21.8801809,105.600091 C21.2643564,105.096897 20.6502832,104.574336 20.0549941,104.046743 L20.3180176,103.750018 C20.9094333,104.273936 21.5194446,104.793205 22.1311973,105.292912 L21.8801809,105.600091 Z M98.9441431,104.047713 L98.6811196,103.75098 C99.2720513,103.227257 99.8604662,102.684356 100.429899,102.137583 L100.704544,102.423849 C100.131427,102.974118 99.5391387,103.520503 98.9441392,104.047713 L98.9441431,104.047713 Z M18.2937222,102.422108 C17.7215766,101.872428 17.1514659,101.302606 16.5993619,100.728524 L16.8852393,100.453491 C17.4337555,101.023898 18.0000899,101.590035 18.5685544,102.135841 L18.2937222,102.422108 Z M102.399085,100.730083 L102.113206,100.455042 C102.659979,99.886382 103.203265,99.2981625 103.728149,98.7064522 L104.024876,98.9698649 C103.496504,99.5652602 102.949539,100.15755 102.399087,100.730083 L102.399085,100.730083 Z M14.9743488,98.9691073 C14.4454914,98.3729445 13.9230283,97.7595445 13.421287,97.1459502 L13.7284714,96.8949333 C14.226726,97.5044598 14.7457996,98.113794 15.2710731,98.7056946 L14.9743488,98.9691073 Z M105.579197,97.1455614 L105.272013,96.8945466 C105.77327,96.2817257 106.267941,95.6514753 106.742467,95.0214173 L107.059336,95.2600383 C106.58171,95.8943427 106.083552,96.5286648 105.579197,97.1455614 L105.579197,97.1455614 Z M11.9428917,95.2629439 C11.4648771,94.628237 10.9933518,93.9755174 10.5414854,93.3226054 L10.8676503,93.096769 C11.3165159,93.7454207 11.784844,94.3938702 12.2597508,95.0243229 L11.9428917,95.2629439 Z M108.462977,93.3160068 L108.136812,93.0905572 C108.587322,92.4389998 109.030085,91.7707864 109.452513,91.1045107 L109.787587,91.316789 C109.362247,91.9875253 108.916579,92.6601932 108.462977,93.3160068 Z M9.21929732,91.3280266 C8.79425545,90.6578775 8.37686528,89.9697137 7.97864995,89.2825198 L8.32185955,89.0837896 C8.71736366,89.7663365 9.13205056,90.4498514 9.55417693,91.115546 L9.21929732,91.3280266 Z M111.031229,89.265475 L110.688019,89.0667448 C111.085073,88.3805108 111.472635,87.6784101 111.840055,86.9801769 L112.191012,87.1649524 C111.821269,87.8678424 111.430993,88.5746 111.031229,89.265475 Z M6.82177058,87.1889765 C6.45222035,86.4872566 6.09177163,85.7681032 5.75049974,85.0514687 L6.10862399,84.8810248 C6.4476686,85.5928181 6.80569369,86.3071281 7.17272708,87.0042011 L6.82177058,87.1889765 Z M113.265383,85.0187357 L112.907066,84.8482919 C113.246595,84.1339818 113.576441,83.4026269 113.88711,82.674372 L114.252013,82.8300935 C113.939212,83.5631918 113.607236,84.2995823 113.265383,85.0187357 Z M4.76667796,82.8736734 C4.45426553,82.143092 4.15327907,81.3977923 3.8719514,80.6583038 L4.24266387,80.5173005 C4.52215101,81.251561 4.82110455,81.9920194 5.13139481,82.7175631 L4.76667796,82.8736734 Z M115.149548,80.6023281 L114.778641,80.4617096 C115.059878,79.7197003 115.32948,78.9633613 115.579528,78.2139958 L115.955663,78.3395032 C115.704068,79.0941048 115.432714,79.855285 115.149548,80.6023281 L115.149548,80.6023281 Z M3.0654494,78.4022599 C2.812884,77.6482434 2.57252007,76.8787332 2.35104141,76.1154188 L2.7320196,76.0050185 C2.95204646,76.7631027 3.19076423,77.527383 3.44158429,78.2763637 L3.0654494,78.4022599 Z M116.667648,76.0515039 L116.286477,75.9414902 C116.50534,75.1845682 116.712003,74.4111845 116.900844,73.6424477 L117.28589,73.7369675 C117.095885,74.5109323 116.887869,75.2897405 116.667648,76.0515039 Z M1.73009,73.8014636 C1.53950373,73.0290477 1.3623803,72.2428794 1.20336272,71.46446 L1.59209573,71.3850492 C1.7499491,72.1582386 1.92591228,72.9393712 2.11514196,73.706559 L1.73009,73.8014636 Z M117.810001,71.3995752 L117.421082,71.3205512 C117.577963,70.5479409 117.721292,69.7602236 117.847188,68.9794797 L118.238819,69.0426212 C118.11215,69.8285952 117.967854,70.6215425 117.810001,71.3995752 Z M0.771736186,69.1078928 C0.644582807,68.3248244 0.531471416,67.5268414 0.435597161,66.7360221 L0.829357923,66.6883745 C0.924651062,67.4739617 1.03698895,68.2665144 1.16336685,69.0443606 L0.771736186,69.1078928 Z M118.572344,66.6697847 L118.178389,66.6225198 C118.272714,65.8373174 118.352317,65.0406949 118.414685,64.2548142 L118.810189,64.2861926 C118.747242,65.0774025 118.667249,65.8793562 118.572344,66.6697847 L118.572344,66.6697847 Z M0.195138024,64.3527315 C0.13112401,63.5604624 0.0823161994,62.7558947 0.0500672258,61.9613012 L0.446346819,61.9452243 C0.478401426,62.7344925 0.52691967,63.533733 0.590447768,64.320772 L0.195138024,64.3527315 Z M118.952741,61.895157 L118.556462,61.8794688 C118.587451,61.0890403 118.603334,60.2885404 118.603334,59.5001448 L118.603135,59.368729 L118.999802,59.368729 L119,59.4992721 C119,60.2936733 118.984117,61.0994032 118.952741,61.895157 Z M0.396666343,59.5659003 L0,59.5659003 L9.7183254e-05,59.4992721 C9.7183254e-05,58.7255016 0.0151070377,57.9418522 0.0448391634,57.1710825 L0.44110884,57.1863819 C0.411668264,57.9521159 0.396755593,58.7305373 0.396755593,59.5001408 L0.396666343,59.5659003 Z M118.550845,56.9899861 C118.51812,56.202366 118.468915,55.4031196 118.404225,54.6146327 L118.799729,54.5822865 C118.864614,55.3761046 118.914197,56.1805751 118.947124,56.9735224 L118.550845,56.9899861 Z M0.580086843,54.810743 L0.184580749,54.7797533 C0.246948598,53.9854494 0.32616485,53.1834005 0.419909007,52.3956832 L0.813864135,52.4425554 C0.720701095,53.2250387 0.642065959,54.0218595 0.580086843,54.810743 Z M118.162899,52.2472226 C118.067217,51.4649298 117.954106,50.6723692 117.826274,49.8916253 L118.217905,49.8276131 C118.346318,50.6135871 118.460399,51.4114729 118.55646,52.1991902 L118.162899,52.2472226 Z M1.14236138,50.0857938 L0.75073072,50.0230411 C0.876432301,49.2376403 1.01985495,48.4444113 1.17722439,47.6656032 L1.5659574,47.7440461 C1.40973433,48.5177154 1.26726963,49.3055299 1.14235345,50.0857938 L1.14236138,50.0857938 Z M117.394755,47.5513293 C117.235545,46.7762003 117.058711,45.9954564 116.869095,45.2304979 L117.254139,45.1350102 C117.445114,45.9051016 117.62311,46.6912699 117.783291,47.4715299 L117.394755,47.5513293 Z M2.08375771,45.4214673 L1.69842215,45.3273362 C1.88707071,44.5553071 2.09431301,43.7763046 2.31433986,43.01183 L2.69551043,43.1215521 C2.47693736,43.8808958 2.27114686,44.6546781 2.08375771,45.4214673 Z M116.249871,42.932806 C116.02907,42.1752076 115.789676,41.4112169 115.537884,40.662139 L115.914021,40.5358581 C116.16736,41.2899697 116.408497,42.0590932 116.630654,42.8218245 L116.249871,42.932806 Z M3.39994622,40.8485626 L3.02350986,40.7234419 C3.27452429,39.968166 3.54490992,39.2064998 3.82720546,38.4596492 L4.19830467,38.599871 C3.91785562,39.3417891 3.64921334,40.0983224 3.39994622,40.8485626 Z M114.734093,38.4221721 C114.452282,37.6843277 114.152458,36.9443552 113.842951,36.222683 L114.207465,36.0663803 C114.519104,36.7928919 114.821059,37.5378049 115.104806,38.2805877 L114.734093,38.4221721 Z M5.08722601,36.3861535 L4.72213034,36.2308187 C5.03386646,35.498012 5.36506699,34.7612327 5.70643606,34.0412165 L6.06484988,34.2110793 C5.72570809,34.9263493 5.39683203,35.6581881 5.08722601,36.3861535 Z M112.863292,34.0601891 C112.523763,33.3491634 112.16506,32.635248 111.797053,31.9382723 L112.147621,31.7530129 C112.518335,32.4547348 112.879555,33.1734023 113.221216,33.8893605 L112.863292,34.0601891 Z M7.12972844,32.0779209 L6.7783852,31.8937246 C7.1481298,31.1890019 7.53762838,30.4818576 7.93594089,29.7918553 L8.27953922,29.9901888 C7.88384074,30.6755363 7.49695619,31.3780336 7.12972844,32.0779209 Z M110.64541,29.8604192 C110.248743,29.1775827 109.833483,28.4944546 109.410863,27.8298251 L109.74555,27.6169656 C110.171074,28.2860497 110.589047,28.9738267 110.988425,29.6611178 L110.64541,29.8604192 Z M9.51243771,27.9511695 L9.17717136,27.7390835 C9.60269517,27.0663183 10.0476874,26.3931664 10.4996569,25.7384139 L10.8260162,25.9637664 C10.3770474,26.6141615 9.93515512,27.2827617 9.51243771,27.9511695 Z M108.095162,25.8498833 C107.645232,25.201531 107.176128,24.5534524 106.701019,23.9239755 L107.017499,23.6849677 C107.495901,24.3187068 107.96811,24.9710377 108.42094,25.6238525 L108.095162,25.8498833 Z M12.2182139,24.0311807 L11.9011525,23.7929484 C12.3791672,23.1566945 12.8764519,22.5217932 13.3791611,21.90568 L13.6865378,22.1565025 C13.187123,22.7684467 12.6931286,23.399181 12.2182139,24.0311807 L12.2182139,24.0311807 Z M105.230371,22.0549141 C104.730083,21.4445169 104.210234,20.835861 103.685736,20.2458962 L103.982073,19.9822911 C104.510251,20.5762266 105.033394,21.1889522 105.537168,21.8035105 L105.230371,22.0549141 Z M15.2285623,20.3424489 L14.9316437,20.0796173 C15.4582718,19.4846167 16.0045587,18.8917462 16.5553974,18.3174695 L16.8416635,18.5921159 C16.294504,19.1625151 15.751799,19.7515102 15.2285604,20.3424489 L15.2285623,20.3424489 Z M102.069632,18.4995338 C101.520729,17.9300032 100.95381,17.3646376 100.384381,16.819026 L100.658833,16.532565 C101.231946,17.0818556 101.802733,17.6509995 102.355123,18.2243083 L102.069632,18.4995338 Z M18.5230489,16.9079231 L18.2480163,16.6220432 C18.8203543,16.0713007 19.4121586,15.5243345 20.0067694,14.9961545 L20.2701816,15.2926869 C19.6794344,15.8173803 19.0916007,16.3608597 18.5230489,16.9079231 Z M98.6332836,15.2068839 C98.0406066,14.6828689 97.4299189,14.1643735 96.8184578,13.6659256 L97.0690855,13.3584511 C97.6846144,13.8602885 98.2993699,14.3821734 98.8959184,14.9097703 L98.6332836,15.2068839 Z M22.0801543,13.7490155 L21.8287531,13.4422193 C22.444181,12.9381546 23.0775341,12.4404803 23.7110777,11.9628495 L23.9498907,12.2795247 C23.3205141,12.7539603 22.6914271,13.2484375 22.0801543,13.7490155 Z M94.9426048,12.1986641 C94.3098367,11.7237485 93.6592484,11.2557092 93.0094375,10.807521 L93.234498,10.4809688 C93.8887655,10.9321578 94.543614,11.4032971 95.1808367,11.8814019 L94.9426048,12.1986641 Z M25.8768462,10.8860611 L25.6508158,10.5600881 C26.3046965,10.1069614 26.9755227,9.66177602 27.6447028,9.23683256 L27.8573695,9.57171277 C27.1926599,9.99375263 26.5262862,10.4359372 25.8768621,10.8860611 L25.8768462,10.8860611 Z M91.0212545,9.49482084 C90.3524612,9.07239424 89.6662423,8.6580041 88.9813681,8.26316965 L89.1797013,7.91957269 C89.8688317,8.31701324 90.5597035,8.73421178 91.2331458,9.15944679 L91.0212545,9.49482084 Z M29.888557,8.33842136 L29.6895456,7.99521115 C30.3753817,7.59747904 31.0794287,7.2077854 31.7819228,6.83716946 L31.9670847,7.18793222 C31.2691423,7.55613047 30.5698434,7.94321008 29.888557,8.33842136 Z M86.8932788,7.11442783 C86.1927204,6.74739577 85.4749249,6.38956243 84.7596463,6.05090397 L84.9293143,5.69239232 C85.6494343,6.03327807 86.3722655,6.39353306 87.0772785,6.76308395 L86.8932788,7.11442783 Z M34.0894916,6.12276219 L33.9187585,5.76463729 C34.6340371,5.42365436 35.3666501,5.09225887 36.0963575,4.77965152 L36.2524676,5.14426391 C35.5276887,5.45474314 34.7999171,5.78391134 34.0894817,6.12276219 L34.0894916,6.12276219 Z M82.583977,5.07444654 C81.8549479,4.76484791 81.1100363,4.46627463 80.3697736,4.186787 L80.5099951,3.81568712 C81.2550991,4.09701529 82.0052408,4.39771073 82.7389188,4.70935022 L82.583977,5.07444654 Z M38.4525219,4.25428386 L38.3112293,3.88357074 C39.0534278,3.6005964 39.8122862,3.32885567 40.5666881,3.07580589 L40.6927764,3.45194344 C39.9435074,3.70324986 39.1897818,3.97324526 38.4525219,4.25428386 Z M78.1205108,3.38957548 C77.3709522,3.14098225 76.6060903,2.90439416 75.8470395,2.68640181 L75.9566661,2.30523056 C76.7207526,2.52467471 77.4906483,2.76281179 78.2452445,3.01305316 L78.1205108,3.38957548 Z M42.9640204,2.74092568 L42.8532335,2.3601392 C43.6160606,2.13817622 44.3944806,1.92880345 45.1667899,1.7377329 L45.2620831,2.12277959 C44.4949046,2.31259072 43.7217146,2.52060887 42.9640204,2.74092568 L42.9640204,2.74092568 Z M73.5469379,2.07609981 C72.7811081,1.88929144 71.999493,1.71546004 71.2239785,1.55944097 L71.3022289,1.17052281 C72.0829714,1.32760297 72.8698146,1.5026918 73.6408745,1.69066438 L73.5469379,2.07609981 Z M47.5831107,1.5985702 L47.5035058,1.21003482 C48.2811503,1.05082457 49.0739078,0.905174375 49.8597772,0.777050918 L49.923694,1.16848791 C49.1429515,1.29583985 48.3555312,1.44052218 47.5831107,1.5985702 Z M68.8821378,1.1372127 C68.1020716,1.01285758 67.3090305,0.902659506 66.5249937,0.809885033 L66.5716714,0.415929202 C67.3609362,0.509381976 68.1593066,0.620266283 68.9445036,0.745581337 L68.8821378,1.1372127 Z M52.2794816,0.833222939 L52.2314473,0.439461475 C53.0205197,0.343394665 53.8223748,0.26195297 54.6147376,0.197645308 L54.6468894,0.59295774 C53.8597547,0.656963935 53.0632268,0.737737246 52.2794816,0.833222939 Z M64.1568103,0.577461942 C63.370451,0.516161016 62.5711128,0.469869971 61.7810744,0.439945409 L61.7961815,0.043476692 C62.5914499,0.0736908212 63.3960162,0.120273416 64.1876055,0.181961093 L64.1568103,0.577461942 Z M57.0223357,0.447597116 L57.0060724,0.0513267329 C57.7992068,0.0186017013 58.6050345,0.00134668464 59.4011775,0 L59.4017586,0.39666705 C58.6109428,0.398013735 57.8103432,0.415153718 57.0223357,0.447597116 L57.0223357,0.447597116 Z" id="Shape" fill="#3F3D56"></path>
                <path d="M127,41 L127,30.0767464 C120.324955,28.5011256 114.598871,24.1202013 111.215097,18 L111.214847,18 C110.411953,18.6121017 109.438408,18.9414241 108.438879,18.9392313 L100,18.9392313 C104.58127,30.6751671 114.842726,39.0594494 127,41 Z" id="Path" fill="#3F3D56"></path>
                <path d="M127,30 L127,19.7238446 C127.000451,18.2056446 126.414145,16.7494931 125.370158,15.6759636 C124.326172,14.602434 122.910093,13.9995367 121.433673,14 L113.413805,14 L113.413805,14.9922905 C113.415501,16.2784095 112.904523,17.5090454 112,18.3972921 C115.203479,24.250437 120.642884,28.4578925 127,30 L127,30 Z" id="Path" fill="#3F3D56"></path>
                <path d="M86.799398,19.7550529 L81.4168531,19.7550529 C78.7792567,19.7542869 76.641563,17.6258603 76.641893,15.0007926 L76.641893,14 L68.8004448,14 C67.2620319,14 65.7865908,14.6080411 64.6987686,15.690696 C63.6109464,16.773351 63,18.2417836 63,19.7728889 L63,148.231061 C62.9983692,149.76226 63.6090881,151.231155 64.6973512,152.313505 C65.7856142,153.395855 67.261939,154.002664 68.8004448,154 L121.199558,154 C121.438529,154 121.677292,153.985958 121.914409,153.956387 C124.817086,153.596165 126.996744,151.14232 127,148.231061 L127,53.6666349 C107.942173,51.468825 92.0623279,37.9355446 86.799398,19.7550529 Z" id="Path" fill="#3F3D56"></path>
                <path d="M98.5011556,19 L87,19 C92.2937682,37.2147704 108.069862,50.7665823 127,53 L127,41.8694811 C114.126113,39.89112 103.270812,31.1800613 98.5011556,19 L98.5011556,19 Z" id="Path" fill="#3F3D56"></path>
                <path d="M82.6406607,152 C82.7822573,151.856404 86.1417277,148.383594 88.9894678,140.143315 C91.6019395,132.583245 94.2383002,119.399722 91.9602565,99.5254696 C87.6444057,61.8749537 109.775576,37.8801951 110,37.6421734 L109.344904,37 C109.288022,37.0603601 103.597818,43.1662139 98.535185,53.8853302 C91.8337582,68.0992496 89.2401167,83.9684984 91.0582236,99.6332726 C95.366638,137.219503 82.1341055,151.206179 82,151.343259 L82.6406607,152 Z" id="Path" fill="#000000" opacity="0.1"></path>
                <circle id="Oval" fill="#000000" opacity="0.1" cx="117" cy="31" r="6"></circle>
                <circle id="Oval" fill="#000000" opacity="0.1" cx="93" cy="48" r="6"></circle>
                <circle id="Oval" fill="#000000" opacity="0.1" cx="103" cy="65" r="6"></circle>
                <circle id="Oval" fill="#000000" opacity="0.1" cx="84" cy="74" r="6"></circle>
                <circle id="Oval" fill="#000000" opacity="0.1" cx="100" cy="97" r="6"></circle>
                <path d="M78.251507,151 C78.251507,151 87.1183804,138.054574 73,123 L78.251507,151 Z" id="Path" fill="#FFB12A" opacity="0.1"></path>
                <path d="M86,153 C86,153 92.4070723,137.786248 113,143.142684 L86,153 Z" id="Path" fill="#FFB12A" opacity="0.1"></path>
                <rect id="Rectangle" fill="#097BED" x="69" y="101" width="51" height="10"></rect>
                <path d="M85.5640144,79.7295181 C81.4279863,73.4851982 82.403052,65.1087419 87.858754,60.0161929 C93.3144561,54.9236439 101.614589,54.6422957 107.392458,59.3540622 C113.170326,64.0658287 114.693106,72.357616 110.976197,78.8681256 C107.259289,85.3786352 99.4174219,88.1553166 92.5209854,85.402825 C91.9253019,87.5622834 89.9687299,89.0405605 87.7610714,88.9991516 C85.553413,88.9577427 83.6519159,87.4071 83.1351428,85.2267753 C82.6183696,83.0464506 83.6167621,80.7867922 85.5640144,79.7295181 L85.5640144,79.7295181 Z" id="Path" fill="#F2F2F2"></path>
                <path d="M100.906128,65.0171276 C100.526524,64.81343 99.0879023,66.447149 97.5,68.8248666 C95.9121038,66.447149 94.4734817,64.81343 94.0938763,65.0171276 C93.6721332,65.2434208 94.7099045,67.6553574 96.4343862,70.5 C94.7099045,73.3446091 93.6721332,75.7565826 94.0938763,75.9828739 C94.4734796,76.1865618 95.9121018,74.5528525 97.5,72.1751368 C99.0879002,74.5528525 100.526522,76.1865618 100.906128,75.9828739 C101.327858,75.7565826 100.2901,73.3446014 98.5656179,70.5 C100.2901,67.6553535 101.327858,65.243417 100.906128,65.0171276 Z" id="Path" fill="#D93128"></path>
                <path d="M28.8394529,91 C28.8394529,91 27.1262845,98 28.5947134,98 C30.0631423,98 33,94.7333347 33,94.7333347 L33,92.8666673 L28.8394529,91 Z" id="Path" fill="#A0616A"></path>
                <polygon id="Path" fill="#097BED" points="32 86 28 92 30.8888039 92"></polygon>
                <rect id="Rectangle" fill="#A0616A" x="29" y="141" width="6" height="5"></rect>
                <polygon id="Path" fill="#A0616A" points="47 140.692262 48.1667671 146 54 144.615278 52.5999197 140"></polygon>
                <path d="M30.0926306,92.6210046 C30.0926306,92.6210046 28.2651058,93.5525107 28.0366637,97.7442915 C27.8082216,101.936072 28.721986,112.881278 28.721986,112.881278 C28.721986,112.881278 27.8082236,117.771689 28.721986,122.196348 C29.6357484,126.621007 27.8082236,142.689498 28.9504281,142.689498 C30.0926326,142.689498 36.0320912,143.388128 36.2605333,142.689498 C36.4889754,141.990868 36.7174135,131.511416 36.7174135,131.511416 C36.7174135,131.511416 38.5449403,126.155251 36.7174135,122.894978 C36.7174135,122.894978 40.8293473,126.388129 40.8293473,127.319635 C40.8293473,128.251141 45.1697232,142.689498 47.2256902,142.922376 C49.2816571,143.155254 54.9926756,142.689498 53.8504731,140.593607 C52.7082706,138.497717 49.9669794,128.949771 49.9669794,128.949771 C49.9669794,128.949771 47.9110066,121.96347 44.2559589,118.936073 L46.0834857,104.031963 C46.0834857,104.031963 49.9669794,94.0182648 47.6825704,92.6210046 C45.3981614,91.2237443 30.0926306,92.6210046 30.0926306,92.6210046 Z" id="Path" fill="#2F2E41"></path>
                <circle id="Oval" fill="#A0616A" cx="36" cy="50" r="6"></circle>
                <path d="M34,53.5759288 C34,53.5759288 36.3076936,61.0052852 35.6153859,61.9058124 C34.9230782,62.8063395 43,56.9529023 43,56.9529023 C43,56.9529023 40,54.9267147 41.1538475,52 L34,53.5759288 Z" id="Path" fill="#A0616A"></path>
                <path d="M43.980365,56 C43.980365,56 41.2287796,56.9349029 39.8529869,58.5709799 C38.4771942,60.2070569 35.2670126,60.4407836 35.2670126,60.4407836 C35.2670126,60.4407836 32.4291997,62.0698312 31.3689326,64.8815752 C30.2389338,67.8782326 30.8957349,72.0972988 31.3689326,73.0619643 C32.2861271,74.931768 32.2861271,79.6062763 32.2861271,79.6062763 L31.1396325,90.3576251 C31.1396325,90.3576251 27.0122545,94.3309573 30.2224381,94.7984067 C33.4326217,95.2658561 39.1650905,94.564682 42.6045723,94.7984067 C46.044054,95.0321314 49.9421339,95.4995829 48.7956394,93.1623297 C47.6491448,90.8250766 46.2733541,89.1889975 47.6491468,84.5144912 C48.7257477,80.856537 48.6790487,67.1799507 48.6078232,61.4045119 C48.5879561,59.7917443 47.7495441,58.3046741 46.3924783,57.4752103 L43.980365,56 Z" id="Path" fill="#FFB12A"></path>
                <path d="M34.1934515,92 C34.1934515,92 33.1747171,94.1855107 33.073878,95.4909086 C32.2901773,105.636364 38,95.4909086 38,95.4909086 L38,93.7454552 L34.1934515,92 Z" id="Path" fill="#A0616A"></path>
                <path d="M50.4588075,145 C50.4588075,145 47.053475,142.555549 47.053475,143.888883 C47.053475,145.222217 43.1940975,150.555553 43.1940975,150.555553 C43.1940975,150.555553 36.8374774,155 42.058986,155 C47.2804946,155 49.5507176,154.111111 49.5507176,154.111111 L54.9992496,150.555553 C54.9992496,150.555553 56.3613826,149 55.9073376,147.222218 C55.4532927,145.444439 53.8641459,143 53.8641459,143 C53.8641459,143 52.0479679,145.444439 50.4588075,145 Z" id="Path" fill="#2F2E41"></path>
                <path d="M30.1000381,145.488334 C30.1000381,145.488334 29.6259333,143.162812 27.9665698,144.325573 C26.3072063,145.488334 21.8032163,148.976616 21.8032163,148.976616 C21.8032163,148.976616 13.5063946,150.837032 18.7215406,153.162554 C23.9366866,155.488076 35.7892868,152.232346 35.7892868,152.232346 C35.7892868,152.232346 36.2633915,144.790678 35.7892868,145.023229 C35.315182,145.255781 30.3370894,145.953431 30.1000381,145.488334 Z" id="Path" fill="#2F2E41"></path>
                <polygon id="Path" fill="#000000" opacity="0.1" points="40.2941712 63 41 77.2480295 34.1601832 91 33 90.5618279 40.058895 77.7151451"></polygon>
                <path d="M45.1930455,59.3465356 L46.9816333,59 C46.9816333,59 52.3473928,62.8118821 50.6780457,70.4356442 C49.0086987,78.0594064 41.6158719,89.6105618 41.6158719,89.6105618 C41.6158719,89.6105618 39.9465248,91.6897697 39.4695677,92.1518166 C38.9926105,92.6138634 38.0386982,92.1518166 38.5156554,92.8448858 C38.9926126,93.5379551 37.8002207,94 37.8002207,94 C37.8002207,94 32.553698,94 33.0306551,92.1518166 C33.5076123,90.3036331 41.6158719,77.1353147 41.6158719,77.1353147 L40.423482,64.8910899 C40.423482,64.8910899 39.4695677,58.8844888 45.1930455,59.3465356 Z" id="Path" fill="#097BED"></path>
                <polygon id="Path" fill="#000000" opacity="0.1" points="48 80.6250749 48 79 40 92"></polygon>
                <path d="M31.9552822,44.3646777 L30.9464445,43.9855136 C30.9464445,43.9855136 33.0558019,41.8053362 35.9905844,41.9949258 L35.1651592,41.1418019 C35.1651592,41.1418019 37.1828164,40.383487 39.0170428,42.3740804 C39.9812573,43.4204914 41.0968702,44.650489 41.792338,46.0360695 L42.8727214,46.0360695 L42.4218103,46.9681719 L44,47.9002743 L42.38014,47.7328482 C42.5335735,48.5375571 42.4810595,49.3649804 42.2269279,50.1468912 L42.2703514,50.8836247 C42.2703514,50.8836247 40.3927055,48.1562883 40.3927055,47.7771242 L40.3927055,48.7250287 C40.3927055,48.7250287 39.383878,47.871918 39.383878,47.3031795 L38.8336141,47.9667138 L38.5584811,46.9240154 L35.1651613,47.9667138 L35.7154272,47.113605 L33.6060577,47.3979734 L34.4314828,46.355275 C34.4314828,46.355275 32.0469925,47.5875535 31.955264,48.6302481 C31.8635355,49.6729427 30.6713298,51 30.6713298,51 L30.1210659,50.0520955 C30.1210659,50.0520955 29.2956589,45.7865231 31.9552822,44.3646777 Z" id="Path" fill="#2F2E41"></path>
            </g>
        </g>
    </g>
</svg>